<svg width="14" height="11" viewBox="0 0 14 11" fill="none" xmlns="http://www.w3.org/2000/svg">
<path fill-rule="evenodd" clip-rule="evenodd" d="M0 5.5C0 5.16249 0.28491 4.88889 0.636364 4.88889H13.3636C13.7151 4.88889 14 5.16249 14 5.5C14 5.83751 13.7151 6.11111 13.3636 6.11111H0.636364C0.28491 6.11111 0 5.83751 0 5.5Z" fill="white"/>
<path fill-rule="evenodd" clip-rule="evenodd" d="M3.97091 0L10.0291 7.28501e-08C10.3843 0.000181142 10.7327 0.095506 11.0345 0.275256C11.3361 0.454849 11.5796 0.711603 11.7376 1.01669C11.7378 1.01696 11.7379 1.01723 11.7381 1.0175L13.9327 5.22639C13.9769 5.31132 14 5.40501 14 5.5V9.16667C14 9.6529 13.7989 10.1192 13.4408 10.463C13.0828 10.8068 12.5972 11 12.0909 11H1.90909C1.40277 11 0.917184 10.8068 0.55916 10.463C0.201136 10.1192 0 9.6529 0 9.16667V5.5C0 5.40501 0.0230595 5.31132 0.067348 5.22639L2.26193 1.0175C2.26209 1.0172 2.26224 1.0169 2.2624 1.01661C2.42046 0.711554 2.66393 0.454831 2.96548 0.275256C3.26732 0.0955061 3.61574 0.000180996 3.97091 0ZM2.83182 1.28944L3.40083 1.56306L1.27273 5.64445V9.16667C1.27273 9.32874 1.33977 9.48418 1.45911 9.59879C1.57846 9.71339 1.74032 9.77778 1.90909 9.77778H12.0909C12.2597 9.77778 12.4215 9.71339 12.5409 9.59879C12.6602 9.48418 12.7273 9.32874 12.7273 9.16667V5.64445L10.5992 1.56306L10.5983 1.56139C10.5456 1.45957 10.4644 1.37389 10.3638 1.31397C10.2632 1.25408 10.1472 1.2223 10.0289 1.22222H3.97113C3.85278 1.2223 3.7368 1.25408 3.63622 1.31397C3.5356 1.37389 3.45438 1.45957 3.4017 1.56139L2.83182 1.28944Z" fill="white"/>
</svg>
